<?xml version="1.0" encoding="utf-8"?>
<!-- Generator: Adobe Illustrator 18.0.0, SVG Export Plug-In . SVG Version: 6.00 Build 0)  -->
<!DOCTYPE svg PUBLIC "-//W3C//DTD SVG 1.1//EN" "http://www.w3.org/Graphics/SVG/1.1/DTD/svg11.dtd">
<svg version="1.1" id="Layer_1" xmlns="http://www.w3.org/2000/svg" xmlns:xlink="http://www.w3.org/1999/xlink" x="0px" y="0px"
	 viewBox="0 0 160 60" enable-background="new 0 0 160 60" xml:space="preserve">
<path fill="#2BC28B" d="M20.1,53.1c-4.9,0-9.2-1.6-12.1-4.6c-4.2-4.2-5.4-10.7-3.7-18.8c1.7-7.9,5.5-15.7,9.8-20
	c2.9-2.9,6-4.3,9.6-4.3c1.1,0,2.3,0.1,3.6,0.4c4.4,1,8.6,5,12.7,9l0.5,0.5l0.6,0.6c3.9,4,7.6,7.8,9.2,12.1c1.8,4.9,0.5,9.6-3.7,13.7
	C42.9,45.7,36,49.3,27.5,52C25,52.8,22.5,53.1,20.1,53.1 M23.8,5.8c-3.5,0-6.6,1.4-9.4,4.2C10.2,14.2,6.4,22,4.7,29.8
	c-1.8,8-0.5,14.4,3.6,18.5c2.9,2.9,7.1,4.5,11.9,4.5c2.3,0,4.8-0.4,7.2-1.1c8.5-2.6,15.3-6.2,19.2-10.1c4.1-4,5.3-8.6,3.6-13.4
	c-1.6-4.2-5.3-8-9.2-12l-0.6-0.6l-0.5-0.5c-4-3.9-8.2-8-12.5-8.9C26.1,6,25,5.8,23.8,5.8"/>
<path fill="#323C4F" d="M29.4,53.9c-1.2,0-2.5-0.2-3.7-0.6c-5.9-1.8-12-3.9-16.4-7.6c-2.2-1.9-3.9-4.3-5-7.2
	c-1.1-2.7-1.8-6.1-1.8-8.5c0-2.7,0.6-4.1,1.9-6c1.1-1.6,2.8-3.7,4.9-6.1c6-6.8,11.4-10.5,16.5-11.3c3.1-0.5,5.6-0.9,8.1-0.9
	c3.6,0,6.3,0.9,8.5,2.8c2.2,1.9,3.9,4.9,5.1,9c1.1,3.7,1.8,8.6,1.8,12.5c0,4.5-0.7,7-1.8,9.4c-1.2,2.5-2.9,5-5,7.4
	C39.6,50,35,53.9,29.4,53.9 M33.8,6.7c-2.4,0-4.9,0.4-7.9,0.9C21,8.4,15.8,12,10,18.6c-2.1,2.4-3.8,4.4-4.9,6
	C4,26.3,3.4,27.5,3.4,30c0,1.9,0.5,5.2,1.8,8.2c1.1,2.8,2.7,5.1,4.8,6.9c4.2,3.6,10.2,5.6,16,7.4c1.1,0.3,2.3,0.5,3.4,0.5
	c2.9,0,7.4-1.2,12.2-6.8c2-2.3,3.7-4.8,4.8-7.2c1-2.3,1.8-4.7,1.8-9c0-3.8-0.7-8.6-1.8-12.2c-1.1-3.8-2.8-6.8-4.8-8.5
	C39.7,7.5,37.2,6.7,33.8,6.7"/>
<path fill="#323C4F" d="M56.9,34.4h5.3v2.3h-7.9V24.3h2.7C56.9,24.3,56.9,34.4,56.9,34.4z M71.8,24.3l4.8,12.5h-3l-0.8-2.1h-5.3
	l-0.8,2.1h-3l4.8-12.5H71.8z M72.1,32.3L70.1,27l-1.9,5.4H72.1z M86.6,31.7c0,1.7-1,2.9-2.9,2.9s-2.9-1.2-2.9-2.9v-7.4h-2.7v7.5
	c0,3.1,1.8,5.2,5.6,5.2s5.6-2.1,5.6-5.2v-7.5h-2.7V31.7z M95,27.7c0-0.7,0.6-1.3,1.8-1.3c1.3,0,2.6,0.4,3.6,1.4l1.5-1.9
	c-1.2-1.1-2.9-1.7-4.9-1.7c-2.9,0-4.7,1.7-4.7,3.8c0,4.7,7.2,3.2,7.2,5.4c0,0.7-0.7,1.4-2.2,1.4c-1.7,0-3.1-0.8-4-1.7l-1.4,2
	c1.2,1.2,2.9,2,5.3,2c3.4,0,5-1.7,5-4C102.2,28.3,95,29.7,95,27.7 M111.5,24.3l4.8,12.5h-3l-0.8-2.1h-5.3l-0.8,2.1h-3l4.8-12.5
	H111.5z M111.8,32.3l-1.9-5.4l-1.9,5.4H111.8z M127,32.1l-5.8-7.8h-2.7v12.5h2.7v-8.1l5.9,8.1h2.6V24.3H127L127,32.1L127,32.1z
	 M141.5,32.1l-5.8-7.8H133v12.5h2.7v-8.1l5.9,8.1h2.6V24.3h-2.7L141.5,32.1L141.5,32.1z M156.4,26.6v-2.3h-8.8v12.5h8.8v-2.3h-6.2
	v-2.8h6v-2.3h-6v-2.6C150.3,26.6,156.4,26.6,156.4,26.6z M21.2,32c0,2.4-1.3,4-3.9,4s-4-1.6-4-4V22H9.7v10.1c0,4.1,2.5,7,7.6,7
	s7.6-2.9,7.6-7.1V22h-3.7V32z M43.2,22h-4.3L35,27.7L31.1,22h-4.3l5.7,8.2l-6.1,8.7h4.3l4.2-6.2l4.2,6.2h4.3l-6.1-8.7L43.2,22z"/>
<g>
	<path fill="#2BC28B" d="M135.6,45.5v-1.1c2.6-1.9,3.4-2.6,3.4-3.3c0-0.6-0.5-0.8-1-0.8c-0.7,0-1.3,0.3-1.7,0.7l-0.8-0.9
		c0.6-0.7,1.6-1,2.4-1c1.4,0,2.4,0.8,2.4,2c0,1.1-0.9,2-2.5,3.2h2.6v1.2L135.6,45.5L135.6,45.5z"/>
	<path fill="#2BC28B" d="M141.2,42.3c0-1.6,0.8-3.3,2.6-3.3s2.6,1.6,2.6,3.3c0,1.6-0.8,3.3-2.6,3.3S141.2,44,141.2,42.3z
		 M145.1,42.3c0-1.2-0.3-2.1-1.2-2.1s-1.2,0.9-1.2,2.1c0,1.2,0.3,2.1,1.2,2.1S145.1,43.5,145.1,42.3z"/>
	<path fill="#2BC28B" d="M148.9,45.5v-4.6l-1.1,1.1l-0.8-0.8l2-2h1.2v6.4L148.9,45.5L148.9,45.5z"/>
	<path fill="#2BC28B" d="M151.4,44.7l0.8-0.9c0.4,0.4,1,0.7,1.7,0.7c0.8,0,1.2-0.4,1.2-0.9c0-0.6-0.4-0.9-1.2-0.9
		c-0.5,0-0.9,0.2-1.3,0.5l-0.9-0.3v-3.6h4.3v1.2h-3v1.5c0.3-0.3,0.8-0.5,1.4-0.5c1.1,0,2,0.8,2,2c0,1.3-1,2.2-2.5,2.2
		C152.7,45.6,152,45.3,151.4,44.7z"/>
</g>
</svg>
