<?xml version="1.0" encoding="UTF-8" standalone="no"?>
<svg width="60px" height="60px" viewBox="0 0 60 60" version="1.1" xmlns="http://www.w3.org/2000/svg" xmlns:xlink="http://www.w3.org/1999/xlink" xmlns:sketch="http://www.bohemiancoding.com/sketch/ns">
    <!-- Generator: Sketch 3.2.1 (9971) - http://www.bohemiancoding.com/sketch -->
    <title>logo_uxls_grey_mini</title>
    <desc>Created with Sketch.</desc>
    <defs></defs>
    <g id="Website" stroke="none" stroke-width="1" fill="none" fill-rule="evenodd" sketch:type="MSPage">
        <g id="logo_uxls_grey_mini" sketch:type="MSArtboardGroup">
            <g id="logo-UXLS" sketch:type="MSLayerGroup" transform="translate(5.000000, 5.000000)">
                <g id="Page-1" sketch:type="MSShapeGroup">
                    <path d="M10.2318182,36.5830986 L11.5685315,36.5830986 L11.5685315,37.1799296 L9.55909091,37.1799296 L9.55909091,33.9961268 L10.2318182,33.9961268 L10.2318182,36.5830986 L10.2318182,36.5830986 Z M14.7174825,33.9961268 L15.936014,37.1799296 L15.1678322,37.1799296 L14.9734266,36.640493 L13.6178322,36.640493 L13.4188811,37.1799296 L12.6513986,37.1799296 L13.8737762,33.9961268 L14.7174825,33.9961268 L14.7174825,33.9961268 Z M14.7888112,36.0440141 L14.2958042,34.6739437 L13.8027972,36.0440141 L14.7888112,36.0440141 L14.7888112,36.0440141 Z M19.1895105,35.8866197 C19.1895105,36.3306338 18.9381119,36.6359155 18.45,36.6359155 C17.9618881,36.6359155 17.7059441,36.3306338 17.7059441,35.8866197 L17.7059441,33.9961268 L17.0237762,33.9961268 L17.0237762,35.9102113 C17.0237762,36.6929577 17.4877622,37.2369718 18.45,37.2369718 C19.4122378,37.2369718 19.8769231,36.6982394 19.8769231,35.9056338 L19.8769231,33.9961268 L19.1895105,33.9961268 L19.1895105,35.8866197 L19.1895105,35.8866197 Z M22.022028,34.8602113 C22.022028,34.6693662 22.1828671,34.5401408 22.472028,34.5401408 C22.7940559,34.5401408 23.1356643,34.65 23.3916084,34.8887324 L23.7660839,34.3926056 C23.4534965,34.1014085 23.036014,33.9485915 22.5335664,33.9485915 C21.7895105,33.9485915 21.3346154,34.3873239 21.3346154,34.9176056 C21.3346154,36.115493 23.1545455,35.7288732 23.1545455,36.2922535 C23.1545455,36.4732394 22.9744755,36.6450704 22.6048951,36.6450704 C22.1685315,36.6450704 21.8227273,36.45 21.6,36.215493 L21.234965,36.731338 C21.5286713,37.0320423 21.9646853,37.2369718 22.5713287,37.2369718 C23.4248252,37.2369718 23.8370629,36.7982394 23.8370629,36.215493 C23.8370629,35.0271127 22.022028,35.3658451 22.022028,34.8602113 L22.022028,34.8602113 Z M26.9244755,33.9961268 L28.1426573,37.1799296 L27.3751748,37.1799296 L27.1804196,36.640493 L25.8248252,36.640493 L25.6258741,37.1799296 L24.858042,37.1799296 L26.0807692,33.9961268 L26.9244755,33.9961268 L26.9244755,33.9961268 Z M26.9954545,36.0440141 L26.5027972,34.6739437 L26.0097902,36.0440141 L26.9954545,36.0440141 L26.9954545,36.0440141 Z M31.5437063,35.9961268 L30.0793706,33.9961268 L29.3870629,33.9961268 L29.3870629,37.1799296 L30.0601399,37.1799296 L30.0601399,35.1035211 L31.5674825,37.1799296 L32.2167832,37.1799296 L32.2167832,33.9961268 L31.5437063,33.9961268 L31.5437063,35.9961268 L31.5437063,35.9961268 Z M35.9493007,35.9961268 L34.4846154,33.9961268 L33.7926573,33.9961268 L33.7926573,37.1799296 L34.4657343,37.1799296 L34.4657343,35.1035211 L35.9730769,37.1799296 L36.622028,37.1799296 L36.622028,33.9961268 L35.9493007,33.9961268 L35.9493007,35.9961268 L35.9493007,35.9961268 Z M38.1986014,37.1799296 L40.4356643,37.1799296 L40.4356643,36.5830986 L38.8716783,36.5830986 L38.8716783,35.8626761 L40.4024476,35.8626761 L40.4024476,35.2658451 L38.8716783,35.2658451 L38.8716783,34.5929577 L40.4356643,34.5929577 L40.4356643,33.9961268 L38.1986014,33.9961268 L38.1986014,37.1799296 L38.1986014,37.1799296 Z M23.4409091,25.4954225 L23.4409091,16.2066901 L20.0975524,16.2066901 L20.0975524,25.4028169 C20.0975524,27.5619718 18.8751748,29.0482394 16.5,29.0482394 C14.1248252,29.0482394 12.8797203,27.5619718 12.8797203,25.4028169 L12.8797203,16.2066901 L9.55909091,16.2066901 L9.55909091,25.518662 C9.55909091,29.3271127 11.8188811,31.9742958 16.5,31.9742958 C21.1811189,31.9742958 23.4409091,29.35 23.4409091,25.4954225 L23.4409091,25.4954225 Z M40.4356643,31.6957746 L34.8555944,23.7306338 L40.0898601,16.2066901 L36.1472028,16.2066901 L32.6646853,21.5014085 L29.1367133,16.2066901 L25.2395105,16.2066901 L30.4741259,23.7538732 L24.8937063,31.6957746 L28.7909091,31.6957746 L32.6646853,26.0295775 L36.5157343,31.6957746 L40.4356643,31.6957746 L40.4356643,31.6957746 Z" id="Fill-1" fill="#323C4F"></path>
                    <path d="M18.1458042,49.031338 C13.1758741,49.031338 8.78881119,47.3514085 5.79335664,44.3003521 C1.52027972,40.0059859 0.227272727,33.3200704 2.05454545,24.965493 C3.76993007,16.825 7.71083916,8.76795775 12.0944056,4.44084507 C15.0160839,1.46830986 18.2269231,0.0221830986 21.9094406,0.0221830986 C23.0786713,0.0221830986 24.2926573,0.161971831 25.6195804,0.449295775 C30.1590909,1.43661972 34.4388112,5.63133803 38.5772727,9.68838028 L39.0734266,10.1742958 L39.6671329,10.7943662 C43.643007,14.9433099 47.3979021,18.8623239 49.1059441,23.2242958 C50.9367133,28.231338 49.6454545,33.1144366 45.3730769,37.3489437 C41.3958042,41.3816901 34.384965,45.1066901 25.6339161,47.8359155 C23.0954545,48.6292254 20.5762238,49.031338 18.1458042,49.031338 L18.1458042,49.031338 Z M21.9094406,0.361619718 C18.3216783,0.361619718 15.1888112,1.77464789 12.3318182,4.68133803 C7.99055944,8.9665493 4.08636364,16.956338 2.38426573,25.0373239 C0.582167832,33.2739437 1.84370629,39.8517606 6.03181818,44.0609155 C8.96468531,47.0478873 13.2664336,48.6922535 18.1458042,48.6922535 C20.5423077,48.6922535 23.027972,48.2950704 25.5342657,47.5119718 C34.2339161,44.7985915 41.1951049,41.1042254 45.1356643,37.1084507 C49.3076923,32.9732394 50.5713287,28.2144366 48.7909091,23.3454225 C47.1090909,19.0492958 43.3765734,15.1538732 39.4248252,11.0299296 L38.8346154,10.4133803 L38.3423077,9.93133803 C34.2374126,5.90809859 29.9933566,1.74753521 25.5486014,0.780985915 C24.2451049,0.498943662 23.0548951,0.361619718 21.9094406,0.361619718 L21.9094406,0.361619718 Z" id="Fill-2" fill="#2BC28B"></path>
                    <path d="M27.5608392,49.7922535 C26.2972028,49.7922535 25.0262238,49.5954225 23.7828671,49.2070423 C17.7916084,47.3503521 11.5657343,45.218662 7.08181818,41.4112676 C4.85104895,39.45 3.11958042,36.9464789 1.92902098,33.9647887 C0.809090909,31.2260563 0.0552447552,27.6947183 0.0552447552,25.1820423 C0.0552447552,22.4207746 0.703496503,20.9489437 1.97972028,19.0447183 C3.14895105,17.378169 4.8458042,15.284507 7.02902098,12.8137324 C13.1181818,5.81338028 18.622028,1.99401408 23.8531469,1.14049296 C27.0059441,0.633450704 29.6153846,0.245774648 32.1171329,0.245774648 C35.8304196,0.245774648 38.5881119,1.14612676 40.7951049,3.07992958 C43.0027972,5.01267606 44.7402098,8.12112676 45.9587413,12.3190141 C47.0863636,16.1225352 47.8157343,21.1725352 47.8157343,25.1820423 C47.8157343,29.7711268 47.0632867,32.3774648 45.9332168,34.8792254 C44.7234266,37.481338 43.0111888,40.040493 40.8416084,42.4915493 C37.9657343,45.8193662 33.3230769,49.7922535 27.5608392,49.7922535 L27.5608392,49.7922535 Z M32.1171329,1.28309859 C29.6912587,1.28309859 27.1223776,1.66549296 24.0167832,2.16478873 C19.0332168,2.97816901 13.7286713,6.68591549 7.8013986,13.5003521 C5.64090909,15.9457746 3.96853147,18.0084507 2.82727273,19.634507 C1.62482517,21.4288732 1.08566434,22.6591549 1.08566434,25.1820423 C1.08566434,27.1711268 1.64160839,30.5369718 2.88321678,33.5735915 C4.01433566,36.4059859 5.6520979,38.7771127 7.7527972,40.6239437 C12.0818182,44.3 18.1961538,46.3901408 24.0870629,48.215493 C25.2325175,48.5732394 26.401049,48.7549296 27.5608392,48.7549296 C30.5272727,48.7549296 35.1052448,47.5492958 40.0685315,41.8052817 C42.1461538,39.4588028 43.8493007,36.9151408 44.9979021,34.4443662 C46.0699301,32.0707746 46.7853147,29.584507 46.7853147,25.1820423 C46.7853147,21.2647887 46.0730769,16.331338 44.9706294,12.6130282 C43.8237762,8.66267606 42.1461538,5.63802817 40.1188811,3.86302817 C38.1101399,2.1028169 35.5674825,1.28309859 32.1171329,1.28309859 L32.1171329,1.28309859 Z" id="Fill-3" fill="#323C4F"></path>
                </g>
            </g>
        </g>
    </g>
</svg>