<?xml version="1.0" encoding="utf-8"?>
<!-- Generator: Adobe Illustrator 18.0.0, SVG Export Plug-In . SVG Version: 6.00 Build 0)  -->
<!DOCTYPE svg PUBLIC "-//W3C//DTD SVG 1.1//EN" "http://www.w3.org/Graphics/SVG/1.1/DTD/svg11.dtd">
<svg version="1.1" id="Layer_1" xmlns="http://www.w3.org/2000/svg" xmlns:xlink="http://www.w3.org/1999/xlink" x="0px" y="0px"
	 viewBox="0 0 400 120" enable-background="new 0 0 400 120" xml:space="preserve">
<path fill="#FFFFFF" d="M61.5,114.7c-11.4,0-21.5-3.8-28.3-10.8c-9.8-9.8-12.8-25-8.6-44c3.9-18.5,13-36.9,23-46.8
	C54.3,6.3,61.7,3,70.1,3c2.7,0,5.5,0.3,8.5,1c10.4,2.2,20.2,11.8,29.7,21l1.1,1.1l1.4,1.4c9.1,9.5,17.7,18.4,21.7,28.3
	c4.2,11.4,1.2,22.5-8.6,32.2c-9.1,9.2-25.2,17.7-45.3,23.9C72.9,113.7,67.1,114.7,61.5,114.7 M70.1,3.8c-8.2,0-15.4,3.2-22,9.8
	c-10,9.8-18.9,28-22.8,46.4c-4.1,18.8-1.2,33.8,8.4,43.3c6.7,6.8,16.6,10.6,27.8,10.6c5.5,0,11.2-0.9,17-2.7
	c20-6.2,35.9-14.6,45-23.7c9.6-9.4,12.5-20.3,8.4-31.4c-3.9-9.8-12.4-18.7-21.5-28.1l-1.4-1.4l-1.1-1.1C98.4,16.4,88.7,6.9,78.5,4.7
	C75.5,4.1,72.8,3.8,70.1,3.8"/>
<path fill="#FFFFFF" d="M83.1,116.4c-2.9,0-5.8-0.4-8.7-1.3c-13.7-4.2-28-9.1-38.3-17.8c-5.1-4.5-9.1-10.2-11.8-17
	C21.7,74.1,20,66,20,60.3c0-6.3,1.5-9.6,4.4-14c2.7-3.8,6.6-8.6,11.6-14.2C50,16.2,62.6,7.5,74.6,5.5c7.2-1.2,13.2-2,19-2
	c8.5,0,14.8,2.1,19.9,6.5c5.1,4.4,9.1,11.5,11.8,21c2.6,8.7,4.3,20.2,4.3,29.3c0,10.5-1.7,16.4-4.3,22.1
	c-2.8,5.9-6.7,11.8-11.7,17.3C107,107.3,96.3,116.4,83.1,116.4 M93.6,5.9c-5.6,0-11.5,0.9-18.6,2C63.5,9.7,51.4,18.2,37.8,33.7
	c-5,5.6-8.8,10.3-11.4,14c-2.8,4.1-4,6.9-4,12.6c0,4.5,1.3,12.2,4.1,19.1c2.6,6.5,6.4,11.9,11.2,16.1c9.9,8.4,24,13.1,37.5,17.3
	c2.6,0.8,5.3,1.2,8,1.2c6.8,0,17.3-2.7,28.7-15.8c4.8-5.3,8.7-11.1,11.3-16.8c2.5-5.4,4.1-11.1,4.1-21.1c0-8.9-1.6-20.2-4.2-28.6
	c-2.6-9-6.5-15.9-11.1-19.9C107.3,7.7,101.5,5.9,93.6,5.9"/>
<path fill="#FFFFFF" d="M147.7,70.8H160v5.5h-18.6V47.1h6.2V70.8z M182.6,47.1l11.3,29.2h-7.1l-1.8-5h-12.5l-1.8,5h-7.1l11.3-29.2
	C174.8,47.1,182.6,47.1,182.6,47.1z M183.2,65.9l-4.6-12.6l-4.6,12.6H183.2z M217.3,64.4c0,4.1-2.3,6.9-6.8,6.9s-6.9-2.8-6.9-6.9
	V47.1h-6.3v17.6c0,7.2,4.3,12.2,13.2,12.2s13.2-4.9,13.2-12.2V47.1h-6.4V64.4z M236.9,55c0-1.8,1.5-2.9,4.2-2.9c3,0,6.1,1,8.5,3.2
	l3.5-4.6c-2.9-2.7-6.7-4.1-11.4-4.1c-6.9,0-11.1,4-11.1,8.9c0,11,16.8,7.4,16.8,12.6c0,1.7-1.7,3.2-5.1,3.2c-4,0-7.2-1.8-9.3-3.9
	l-3.4,4.7c2.7,2.8,6.7,4.6,12.4,4.6c7.9,0,11.7-4,11.7-9.4C253.7,56.5,236.9,59.6,236.9,55 M275.7,47.1l11.3,29.2h-7.1l-1.8-5h-12.5
	l-1.8,5h-7.1l11.3-29.2C267.9,47.1,275.7,47.1,275.7,47.1z M276.3,65.9l-4.6-12.6l-4.6,12.6H276.3z M311.8,65.4l-13.5-18.4h-6.4
	v29.2h6.2V57.2L312,76.3h6V47.1h-6.2L311.8,65.4L311.8,65.4z M346,65.4l-13.5-18.4H326v29.2h6.2V57.2l13.9,19.1h6V47.1H346L346,65.4
	L346,65.4z M380.9,52.5v-5.5h-20.7v29.2h20.7v-5.5h-14.5v-6.6h14.2v-5.5h-14.2v-6.2L380.9,52.5L380.9,52.5z M64,65.1
	c0,5.5-3.1,9.3-9.2,9.3s-9.3-3.8-9.3-9.3V41.6h-8.5v23.8c0,9.7,5.8,16.5,17.8,16.5s17.8-6.7,17.8-16.5V41.6H64V65.1z M115.4,41.6
	h-10.1l-9,13.5l-9.1-13.5h-10l13.5,19.3L76.4,81.1h10l10-14.5l9.9,14.5h10.1L102,60.8L115.4,41.6z"/>
<g>
	<path fill="#FFFFFF" d="M332.1,96.8v-2.5c6.1-4.5,7.9-6,7.9-7.8c0-1.3-1.2-1.9-2.4-1.9c-1.7,0-3,0.7-4,1.7l-1.8-2.1
		c1.4-1.7,3.7-2.4,5.7-2.4c3.2,0,5.7,1.8,5.7,4.7c0,2.5-2.1,4.7-5.9,7.6h6.1v2.8H332.1z"/>
	<path fill="#FFFFFF" d="M345.3,89.4c0-3.8,1.9-7.7,6.1-7.7s6.1,3.8,6.1,7.7c0,3.8-1.9,7.7-6.1,7.7S345.3,93.2,345.3,89.4z
		 M354.4,89.4c0-2.7-0.8-4.9-2.9-4.9c-2.1,0-2.9,2.1-2.9,4.9c0,2.7,0.8,4.9,2.9,4.9S354.4,92.2,354.4,89.4z"/>
	<path fill="#FFFFFF" d="M363.2,96.8V86.1l-2.5,2.5l-1.8-1.9l4.7-4.7h2.8v14.9H363.2z"/>
	<path fill="#FFFFFF" d="M369.2,94.9l1.8-2.2c1,1,2.4,1.6,3.9,1.6c1.8,0,2.8-1,2.8-2.2c0-1.3-1-2.2-2.7-2.2c-1.2,0-2.2,0.4-3.1,1.2
		l-2.2-0.6V82h10.2v2.8h-7v3.6c0.7-0.7,1.9-1.2,3.3-1.2c2.5,0,4.8,1.8,4.8,4.8c0,3.1-2.4,5.1-5.9,5.1
		C372.3,97.1,370.5,96.3,369.2,94.9z"/>
</g>
</svg>
